<svg width="20" height="20" viewBox="0 0 20 20" fill="none" xmlns="http://www.w3.org/2000/svg">
<path fill-rule="evenodd" clip-rule="evenodd" d="M9.99999 2.25732C12.5217 2.25732 12.8204 2.26677 13.8164 2.31227C14.7377 2.35434 15.2374 2.50803 15.5705 2.63768C15.9806 2.78897 16.3517 3.03011 16.6566 3.34344C16.9872 3.67399 17.1906 3.98909 17.3624 4.42955C17.492 4.76268 17.6457 5.26237 17.6878 6.18364C17.7333 7.1796 17.7427 7.47838 17.7427 10.0001C17.7427 12.5217 17.7333 12.8205 17.6878 13.8165C17.6457 14.7377 17.492 15.2374 17.3624 15.5706C17.2113 15.9801 16.97 16.3519 16.6566 16.6567C16.3261 16.9872 16.011 17.1907 15.5705 17.3624C15.2374 17.4921 14.7377 17.6458 13.8164 17.6878C12.8204 17.7333 12.5225 17.7428 9.99999 17.7428C7.47747 17.7428 7.17954 17.7333 6.18358 17.6878C5.26231 17.6458 4.76262 17.4921 4.42949 17.3624C4.01994 17.2113 3.64817 16.9701 3.34337 16.6567C3.02999 16.3519 2.78873 15.9801 2.63762 15.5706C2.50797 15.2374 2.35428 14.7377 2.31221 13.8165C2.26671 12.8205 2.25726 12.5217 2.25726 10.0001C2.25726 7.47838 2.26671 7.1796 2.31221 6.18364C2.35428 5.26237 2.50797 4.76268 2.63762 4.42955C2.78888 4.01938 3.03003 3.64828 3.34337 3.34344C3.67393 3.01288 3.98903 2.80939 4.42949 2.63768C4.76262 2.50803 5.26231 2.35434 6.18358 2.31227C7.17954 2.26677 7.47832 2.25732 9.99999 2.25732ZM10.916 13.0186C10.2175 13.2298 9.46737 13.192 8.79368 12.9115C8.36338 12.7331 7.97799 12.4615 7.66526 12.1162C7.35252 11.771 7.12023 11.3607 6.9851 10.9149C6.84997 10.4691 6.81536 9.99888 6.88377 9.5381C6.95217 9.07732 7.12189 8.63744 7.3807 8.25013C7.63952 7.86281 7.98099 7.5377 8.38053 7.29819C8.78007 7.05869 9.22775 6.91075 9.69132 6.86502C10.1549 6.8193 10.6229 6.87693 11.0615 7.03376C11.5001 7.1906 11.8985 7.44273 12.228 7.77202C12.7449 8.28715 13.0669 8.96575 13.139 9.69191C13.2111 10.4181 13.0289 11.1468 12.6235 11.7535C12.2181 12.3602 11.6145 12.8074 10.916 13.0186ZM8.14227 5.51511C7.5533 5.75907 7.01814 6.11665 6.56736 6.56743C5.65698 7.47781 5.14552 8.71257 5.14552 10.0001C5.14552 11.2875 5.65698 12.5223 6.56736 13.4327C7.47775 14.3431 8.71251 14.8545 9.99999 14.8545C11.2875 14.8545 12.5222 14.3431 13.4326 13.4327C13.8834 12.9819 14.241 12.4467 14.4849 11.8578C14.7289 11.2688 14.8545 10.6375 14.8545 10.0001C14.8545 9.36255 14.7289 8.7313 14.4849 8.14233C14.241 7.55336 13.8834 7.0182 13.4326 6.56743C12.9818 6.11665 12.4467 5.75907 11.8577 5.51511C11.2687 5.27115 10.6375 5.14558 9.99999 5.14558C9.36249 5.14558 8.73124 5.27115 8.14227 5.51511ZM16.1941 5.49589C16.1322 5.63644 16.0428 5.76316 15.9311 5.86854C15.7139 6.07347 15.4253 6.18567 15.1267 6.18132C14.828 6.17696 14.5429 6.0564 14.3317 5.84522C14.1205 5.63404 13.9999 5.34887 13.9956 5.05024C13.9912 4.75162 14.1034 4.46306 14.3084 4.24581C14.4137 4.1341 14.5405 4.04468 14.681 3.98282C14.8216 3.92097 14.9731 3.88794 15.1267 3.8857C15.2802 3.88346 15.4327 3.91206 15.575 3.96979C15.7173 4.02752 15.8465 4.11322 15.9551 4.2218C16.0637 4.33039 16.1494 4.45966 16.2071 4.60196C16.2649 4.74426 16.2934 4.8967 16.2912 5.05024C16.289 5.20379 16.2559 5.35533 16.1941 5.49589Z" fill="white"/>
</svg>
