<svg width="20" height="20" viewBox="0 0 20 20" fill="none" xmlns="http://www.w3.org/2000/svg">
<path d="M17.6803 6.46305C17.259 5.52726 16.6543 4.68709 15.8866 3.96305C15.1188 3.24584 14.2288 2.6789 13.2368 2.28272C12.2108 1.87289 11.1237 1.66797 10.0027 1.66797C8.88161 1.66797 7.79451 1.87289 6.76857 2.28272C5.77659 2.6789 4.88654 3.23901 4.11878 3.96305C3.35102 4.68709 2.74633 5.52726 2.32508 6.46305C1.89024 7.433 1.66602 8.47125 1.66602 9.53682C1.66602 11.4016 2.35903 13.1912 3.62957 14.612L2.95014 18.3346L6.56474 16.7158C7.64503 17.1803 8.79328 17.4125 9.99587 17.4125C11.1169 17.4125 12.204 17.2076 13.23 16.7977C14.222 16.4016 15.112 15.8415 15.8798 15.1174C16.6475 14.3934 17.2522 13.5532 17.6735 12.6174C18.1083 11.6475 18.3325 10.6092 18.3325 9.54365C18.3393 8.47125 18.1151 7.43983 17.6803 6.46305Z" fill="white"/>
<path d="M13.3239 10.7874C12.9719 10.6138 12.7147 10.507 12.5319 10.4402C12.4168 10.4001 12.1461 10.2799 12.0513 10.3534C11.7534 10.5938 11.4353 11.2748 11.0968 11.4017C10.2575 11.2414 9.47906 10.6739 8.86984 10.093C8.59908 9.83927 8.09818 9.11815 7.98987 8.92452C7.96956 8.72421 8.33508 8.45714 8.41631 8.30357C8.83599 7.83618 8.51785 7.54239 8.4637 7.34876C8.36894 7.14845 8.20649 6.7879 8.06434 6.49411C7.94249 6.30048 7.91539 6.01337 7.69878 5.90654C6.7782 5.43915 6.25024 6.37393 6.03363 6.86134C4.72721 9.96613 12.5793 15.8752 14.1768 11.8023C14.258 11.4484 14.2241 11.3149 14.1023 11.1546C13.8586 10.9877 13.5743 10.9143 13.3239 10.7874Z" fill="#EEB967"/>
</svg>
