<svg width="26" height="26" viewBox="0 0 26 26" fill="none" xmlns="http://www.w3.org/2000/svg">
<path d="M22.9173 8.4006C22.3863 7.18407 21.6241 6.09186 20.6564 5.1506C19.6887 4.21822 18.5669 3.4812 17.3166 2.96617C16.0234 2.43339 14.6532 2.16699 13.2402 2.16699C11.8272 2.16699 10.457 2.43339 9.16383 2.96617C7.91351 3.4812 6.79166 4.20934 5.82395 5.1506C4.85625 6.09186 4.09408 7.18407 3.56312 8.4006C3.01504 9.66153 2.73242 11.0113 2.73242 12.3965C2.73242 14.8207 3.60592 17.1472 5.20734 18.9942L4.35097 23.8337L8.90691 21.7292C10.2686 22.333 11.7158 22.6349 13.2316 22.6349C14.6446 22.6349 16.0149 22.3685 17.308 21.8357C18.5583 21.3207 19.6801 20.5925 20.6479 19.6513C21.6156 18.71 22.3777 17.6178 22.9087 16.4013C23.4568 15.1404 23.7394 13.7906 23.7394 12.4054C23.748 11.0113 23.4653 9.67041 22.9173 8.4006Z" fill="#81C968"/>
<path d="M17.4265 14.0222C16.9828 13.7966 16.6586 13.6577 16.4283 13.5709C16.2832 13.5188 15.9419 13.3626 15.8225 13.458C15.4471 13.7705 15.0461 14.6559 14.6195 14.8208C13.5615 14.6125 12.5804 13.8747 11.8125 13.1195C11.4712 12.7897 10.8399 11.8522 10.7034 11.6005C10.6778 11.3401 11.1385 10.9929 11.2408 10.7933C11.7698 10.1857 11.3688 9.80375 11.3006 9.55202C11.1811 9.29162 10.9764 8.8229 10.7972 8.44098C10.6436 8.18926 10.6095 7.81602 10.3365 7.67714C9.17612 7.06953 8.51067 8.28474 8.23765 8.91838C6.591 12.9546 16.488 20.6364 18.5015 15.3416C18.6039 14.8816 18.5612 14.708 18.4076 14.4996C18.1005 14.2826 17.7421 14.1872 17.4265 14.0222Z" fill="white"/>
</svg>
